# Blender v2.90.1 OBJ File: ''
# www.blender.org
mtllib Wallpaper.mtl
o Cube
v 0.252188 0.723700 -0.237442
v 0.252188 0.001464 -0.237442
v 0.252188 0.723700 0.266123
v 0.252188 0.001464 0.266123
v -0.251377 0.723700 -0.237442
v -0.251377 0.001464 -0.237442
v -0.251377 0.723700 0.266123
v -0.251377 0.001464 0.266123
v 0.000406 0.001464 -0.329314
v 0.000406 0.723700 0.360167
v 0.000406 0.001464 0.360167
v 0.000406 0.723700 -0.329314
v -0.330153 0.001464 0.005515
v 0.330964 0.723700 0.005515
v -0.330153 0.723700 0.005515
v 0.330964 0.001464 0.005515
v 0.000406 0.001464 0.003343
v 0.000406 1.652097 2.073007
v 0.000406 2.261463 0.360167
v -0.251377 2.261463 0.266123
v 0.330964 2.261463 0.005515
v 0.252188 2.261463 0.266123
v -0.330153 2.261463 0.005515
v -0.251377 2.261463 -0.237442
v 0.000406 2.261463 -0.329314
v 0.252188 2.261463 -0.237442
v 0.000406 2.184439 -0.005424
v -1.491680 1.652097 1.515692
v 1.959325 1.652097 -0.028693
v 1.492491 1.652097 1.515692
v -1.958513 1.652097 -0.028693
v -1.491680 1.652097 -1.468479
v 0.000406 1.652097 -2.012921
v 1.492491 1.652097 -1.468479
v 0.000406 2.845757 1.483698
v -1.066068 2.845757 1.085355
v 1.400551 2.845757 -0.018501
v 1.066880 2.845757 1.085355
v -1.399740 2.845757 -0.018501
v -1.066068 2.845757 -1.047593
v 0.000406 2.845757 -1.436736
v 1.066880 2.845757 -1.047593
v 0.000406 2.333245 1.908369
v -1.375409 2.333245 1.394482
v 1.806677 2.333245 -0.029558
v 1.376221 2.333245 1.394482
v -1.805865 2.333245 -0.029558
v -1.375409 2.333245 -1.357148
v 0.000406 2.333245 -1.859165
v 1.376221 2.333245 -1.357148
v 0.000406 3.482983 1.276829
v -0.921164 3.482983 0.932609
v 1.210310 3.482983 -0.021263
v 0.921976 3.482983 0.932609
v -1.209499 3.482983 -0.021263
v -0.921164 3.482983 -0.910530
v 0.000406 3.482983 -1.246799
v 0.921976 3.482983 -0.910530
v 0.000406 2.904118 1.741796
v -1.258236 2.904118 1.271676
v 1.652843 2.904118 -0.031084
v 1.259048 2.904118 1.271676
v -1.652032 2.904118 -0.031084
v -1.258236 2.904118 -1.245609
v 0.000406 2.904118 -1.704871
v 1.259048 2.904118 -1.245609
v 0.000406 4.131362 0.924944
v -0.673465 4.131362 0.673244
v 0.885113 4.131362 -0.024247
v 0.674276 4.131362 0.673244
v -0.884301 4.131362 -0.024247
v -0.673465 4.131362 -0.674498
v 0.000406 4.131362 -0.920384
v 0.674276 4.131362 -0.674498
v 0.000406 3.473557 1.450757
v -1.054716 3.473557 1.056654
v 1.385647 3.473557 -0.035452
v 1.055527 3.473557 1.056654
v -1.384835 3.473557 -0.035452
v -1.054716 3.473557 -1.053590
v 0.000406 3.473557 -1.438590
v 1.055527 3.473557 -1.053590
v 0.000406 4.502607 0.742148
v -0.546124 4.502607 0.538012
v 0.717930 4.502607 -0.027675
v 0.546935 4.502607 0.538012
v -0.717119 4.502607 -0.027675
v -0.546124 4.502607 -0.555048
v 0.000406 4.502607 -0.754470
v 0.546935 4.502607 -0.555048
v 0.000406 3.990106 1.180460
v -0.864335 3.990106 0.857467
v 1.135701 3.990106 -0.037584
v 0.865146 3.990106 0.857467
v -1.134889 3.990106 -0.037584
v -0.864335 3.990106 -0.872014
v 0.000406 3.990106 -1.187547
v 0.865146 3.990106 -0.872014
v 0.000406 5.480012 0.036070
v -0.043415 5.480012 0.019703
v 0.057936 5.480012 -0.025722
v 0.044226 5.480012 0.019703
v -0.057125 5.480012 -0.025722
v -0.043415 5.480012 -0.067938
v 0.000406 5.480012 -0.083927
v 0.044226 5.480012 -0.067938
v 0.000406 5.479999 -0.025722
v -0.043415 5.480012 -0.067938
vt 0.625000 0.129381
vt 0.625000 0.000000
vt 0.625000 0.000000
vt 0.625000 0.129381
vt 0.375000 0.875000
vt 0.625000 0.875000
vt 0.625000 1.000000
vt 0.375000 1.000000
vt 0.375000 0.129381
vt 0.625000 0.250000
vt 0.375000 0.250000
vt 0.250000 0.620619
vt 0.375000 0.620619
vt 0.375000 0.750000
vt 0.250000 0.750000
vt 0.625000 0.620619
vt 0.625000 0.750000
vt 0.375000 0.375000
vt 0.625000 0.375000
vt 0.625000 0.500000
vt 0.375000 0.500000
vt 0.125000 0.620619
vt 0.125000 0.750000
vt 0.625000 0.750000
vt 0.625000 0.875000
vt 0.625000 0.250000
vt 0.625000 0.375000
vt 0.125000 0.500000
vt 0.250000 0.500000
vt 0.375000 0.000000
vt 0.625000 1.000000
vt 0.750000 0.620619
vt 0.875000 0.620619
vt 0.875000 0.750000
vt 0.750000 0.750000
vt 0.625000 0.620619
vt 0.625000 0.500000
vt 0.750000 0.500000
vt 0.875000 0.500000
vt 0.625000 0.500000
vt 0.625000 0.620619
vt 0.875000 0.500000
vt 0.750000 0.500000
vt 0.625000 0.750000
vt 0.875000 0.750000
vt 0.875000 0.620619
vt 0.750000 0.750000
vt 0.625000 0.750000
vt 0.750000 0.750000
vt 0.875000 0.620619
vt 0.875000 0.500000
vt 0.875000 0.750000
vt 0.750000 0.500000
vt 0.625000 0.500000
vt 0.625000 0.620619
vt 0.625000 0.500000
vt 0.625000 0.620619
vt 0.625000 0.750000
vt 0.750000 0.750000
vt 0.875000 0.620619
vt 0.875000 0.500000
vt 0.875000 0.750000
vt 0.750000 0.500000
vt 0.875000 0.500000
vt 0.750000 0.500000
vt 0.625000 0.500000
vt 0.625000 0.620619
vt 0.625000 0.750000
vt 0.750000 0.750000
vt 0.875000 0.620619
vt 0.875000 0.750000
vt 0.750000 0.750000
vt 0.875000 0.750000
vt 0.875000 0.620619
vt 0.875000 0.500000
vt 0.750000 0.500000
vt 0.625000 0.500000
vt 0.625000 0.620619
vt 0.625000 0.750000
vt 0.625000 0.500000
vt 0.625000 0.620619
vt 0.625000 0.750000
vt 0.750000 0.750000
vt 0.875000 0.620619
vt 0.875000 0.500000
vt 0.875000 0.750000
vt 0.750000 0.500000
vt 0.625000 0.620619
vt 0.625000 0.750000
vt 0.625000 0.500000
vt 0.750000 0.750000
vt 0.875000 0.620619
vt 0.875000 0.500000
vt 0.875000 0.750000
vt 0.750000 0.500000
vt 0.875000 0.750000
vt 0.875000 0.620619
vt 0.875000 0.500000
vt 0.750000 0.500000
vt 0.625000 0.500000
vt 0.625000 0.620619
vt 0.625000 0.750000
vt 0.750000 0.750000
vt 0.875000 0.620619
vt 0.875000 0.500000
vt 0.750000 0.750000
vt 0.875000 0.750000
vt 0.750000 0.500000
vt 0.625000 0.500000
vt 0.625000 0.620619
vt 0.625000 0.750000
vt 0.625000 0.500000
vt 0.625000 0.620619
vt 0.625000 0.750000
vt 0.750000 0.750000
vt 0.875000 0.620619
vt 0.875000 0.500000
vt 0.875000 0.750000
vt 0.750000 0.500000
vt 0.000000 0.000000
vn -0.9572 0.0000 0.2893
vn -0.3499 0.0000 0.9368
vn -0.9512 0.0000 -0.3084
vn 0.0000 -1.0000 0.0000
vn 0.9572 0.0000 0.2893
vn 0.3428 0.0000 -0.9394
vn -0.3428 0.0000 -0.9394
vn 0.3499 0.0000 0.9368
vn 0.9512 0.0000 -0.3084
vn 0.1493 0.9789 -0.1392
vn -0.1493 0.9789 -0.1392
vn -0.1563 0.9756 0.1543
vn 0.1563 0.9756 0.1543
vn -0.3462 -0.9314 0.1123
vn 0.1232 -0.9331 0.3377
vn -0.1232 -0.9331 0.3377
vn -0.3505 -0.9306 -0.1059
vn 0.3505 -0.9306 -0.1059
vn -0.1242 -0.9349 -0.3326
vn 0.3462 -0.9314 0.1123
vn 0.1242 -0.9349 -0.3326
vn 0.3176 0.4198 0.8503
vn -0.8681 0.4088 -0.2815
vn -0.3176 0.4198 0.8503
vn -0.8743 0.4070 0.2643
vn -0.3122 0.4130 -0.8556
vn 0.3122 0.4130 -0.8556
vn 0.8743 0.4070 0.2643
vn 0.8681 0.4088 -0.2815
vn -0.7572 -0.6053 0.2455
vn -0.2764 -0.6132 -0.7400
vn 0.7572 -0.6053 0.2455
vn 0.2764 -0.6132 -0.7400
vn 0.7649 -0.6012 -0.2312
vn 0.2710 -0.6122 0.7428
vn -0.2710 -0.6122 0.7428
vn -0.7649 -0.6012 -0.2312
vn -0.3065 0.4475 -0.8401
vn 0.3065 0.4475 -0.8401
vn 0.8581 0.4432 0.2594
vn 0.8523 0.4441 -0.2763
vn 0.3111 0.4575 0.8330
vn -0.8523 0.4441 -0.2763
vn -0.3111 0.4575 0.8330
vn -0.8581 0.4432 0.2594
vn 0.2796 -0.6013 -0.7485
vn 0.7743 -0.5880 -0.2341
vn 0.2751 -0.5966 0.7539
vn -0.2751 -0.5966 0.7539
vn -0.7743 -0.5880 -0.2341
vn -0.7674 -0.5909 0.2488
vn -0.2796 -0.6013 -0.7485
vn 0.7674 -0.5909 0.2488
vn 0.8168 0.5125 -0.2649
vn 0.2969 0.5291 0.7949
vn -0.8168 0.5125 -0.2649
vn -0.2969 0.5291 0.7949
vn -0.8218 0.5127 0.2484
vn -0.2939 0.5148 -0.8054
vn 0.2939 0.5148 -0.8054
vn 0.8218 0.5127 0.2484
vn -0.7756 -0.5861 -0.2344
vn -0.7686 -0.5891 0.2492
vn -0.2801 -0.5994 -0.7499
vn 0.7686 -0.5891 0.2492
vn 0.2801 -0.5994 -0.7499
vn 0.7756 -0.5861 -0.2344
vn 0.2755 -0.5949 0.7551
vn -0.2755 -0.5949 0.7551
vn -0.8139 0.5263 0.2460
vn -0.2907 0.5297 -0.7968
vn 0.2907 0.5297 -0.7968
vn 0.8139 0.5263 0.2460
vn 0.8086 0.5267 -0.2622
vn 0.2940 0.5421 0.7872
vn -0.8086 0.5267 -0.2622
vn -0.2940 0.5421 0.7872
vn 0.7496 -0.6157 0.2430
vn 0.2731 -0.6253 -0.7311
vn 0.7567 -0.6124 -0.2287
vn 0.2685 -0.6217 0.7358
vn -0.2685 -0.6217 0.7358
vn -0.7567 -0.6124 -0.2287
vn -0.7496 -0.6157 0.2430
vn -0.2731 -0.6253 -0.7311
vn 0.7827 0.5682 -0.2538
vn 0.2840 0.5841 0.7604
vn -0.7827 0.5682 -0.2538
vn -0.2840 0.5841 0.7604
vn -0.7878 0.5680 0.2381
vn -0.2814 0.5712 -0.7711
vn 0.2814 0.5712 -0.7711
vn 0.7878 0.5680 0.2381
vn 0.0002 1.0000 0.0002
vn -0.0002 1.0000 0.0002
vn -0.0002 1.0000 -0.0002
vn 0.0002 1.0000 -0.0001
usemtl Material
s off
f 15/1/1 7/2/1 20/3/1 23/4/1
f 11/5/2 10/6/2 7/7/2 8/8/2
f 13/9/3 15/1/3 5/10/3 6/11/3
f 17/12/4 16/13/4 4/14/4 11/15/4
f 16/13/5 14/16/5 3/17/5 4/14/5
f 9/18/6 12/19/6 1/20/6 2/21/6
f 6/11/7 5/10/7 12/19/7 9/18/7
f 13/22/4 17/12/4 11/15/4 8/23/4
f 4/14/8 3/17/8 10/6/8 11/5/8
f 10/6/8 3/17/8 22/24/8 19/25/8
f 12/19/7 5/10/7 24/26/7 25/27/7
f 6/28/4 9/29/4 17/12/4 13/22/4
f 2/21/9 1/20/9 14/16/9 16/13/9
f 9/29/4 2/21/4 16/13/4 17/12/4
f 8/30/1 7/2/1 15/1/1 13/9/1
f 7/7/2 10/6/2 19/25/2 20/31/2
f 27/32/10 23/33/10 20/34/10 19/35/10
f 21/36/11 27/32/11 19/35/11 22/24/11
f 26/37/12 25/38/12 27/32/12 21/36/12
f 25/38/13 24/39/13 23/33/13 27/32/13
f 5/10/3 15/1/3 23/4/3 24/26/3
f 3/17/5 14/16/5 21/36/5 22/24/5
f 14/16/9 1/20/9 26/37/9 21/36/9
f 1/20/6 12/19/6 25/27/6 26/37/6
f 21/36/14 26/37/14 34/40/14 29/41/14
f 25/38/15 24/39/15 32/42/15 33/43/15
f 26/37/16 25/38/16 33/43/16 34/40/16
f 22/24/17 21/36/17 29/41/17 30/44/17
f 23/33/18 20/34/18 28/45/18 31/46/18
f 19/35/19 22/24/19 30/44/19 18/47/19
f 24/39/20 23/33/20 31/46/20 32/42/20
f 20/34/21 19/35/21 18/47/21 28/45/21
f 18/47/22 30/44/22 38/48/22 35/49/22
f 32/42/23 31/46/23 39/50/23 40/51/23
f 28/45/24 18/47/24 35/49/24 36/52/24
f 31/46/25 28/45/25 36/52/25 39/50/25
f 33/43/26 32/42/26 40/51/26 41/53/26
f 34/40/27 33/43/27 41/53/27 42/54/27
f 30/44/28 29/41/28 37/55/28 38/48/28
f 29/41/29 34/40/29 42/54/29 37/55/29
f 37/55/30 42/54/30 50/56/30 45/57/30
f 35/49/31 38/48/31 46/58/31 43/59/31
f 40/51/32 39/50/32 47/60/32 48/61/32
f 36/52/33 35/49/33 43/59/33 44/62/33
f 39/50/34 36/52/34 44/62/34 47/60/34
f 41/53/35 40/51/35 48/61/35 49/63/35
f 42/54/36 41/53/36 49/63/36 50/56/36
f 38/48/37 37/55/37 45/57/37 46/58/37
f 49/63/38 48/61/38 56/64/38 57/65/38
f 50/56/39 49/63/39 57/65/39 58/66/39
f 46/58/40 45/57/40 53/67/40 54/68/40
f 45/57/41 50/56/41 58/66/41 53/67/41
f 43/59/42 46/58/42 54/68/42 51/69/42
f 48/61/43 47/60/43 55/70/43 56/64/43
f 44/62/44 43/59/44 51/69/44 52/71/44
f 47/60/45 44/62/45 52/71/45 55/70/45
f 52/71/46 51/69/46 59/72/46 60/73/46
f 55/70/47 52/71/47 60/73/47 63/74/47
f 57/65/48 56/64/48 64/75/48 65/76/48
f 58/66/49 57/65/49 65/76/49 66/77/49
f 54/68/50 53/67/50 61/78/50 62/79/50
f 53/67/51 58/66/51 66/77/51 61/78/51
f 51/69/52 54/68/52 62/79/52 59/72/52
f 56/64/53 55/70/53 63/74/53 64/75/53
f 61/78/54 66/77/54 74/80/54 69/81/54
f 59/72/55 62/79/55 70/82/55 67/83/55
f 64/75/56 63/74/56 71/84/56 72/85/56
f 60/73/57 59/72/57 67/83/57 68/86/57
f 63/74/58 60/73/58 68/86/58 71/84/58
f 65/76/59 64/75/59 72/85/59 73/87/59
f 66/77/60 65/76/60 73/87/60 74/80/60
f 62/79/61 61/78/61 69/81/61 70/82/61
f 70/82/62 69/81/62 77/88/62 78/89/62
f 69/81/63 74/80/63 82/90/63 77/88/63
f 67/83/64 70/82/64 78/89/64 75/91/64
f 72/85/65 71/84/65 79/92/65 80/93/65
f 68/86/66 67/83/66 75/91/66 76/94/66
f 71/84/67 68/86/67 76/94/67 79/92/67
f 73/87/68 72/85/68 80/93/68 81/95/68
f 74/80/69 73/87/69 81/95/69 82/90/69
f 79/92/70 76/94/70 84/96/70 87/97/70
f 81/95/71 80/93/71 88/98/71 89/99/71
f 82/90/72 81/95/72 89/99/72 90/100/72
f 78/89/73 77/88/73 85/101/73 86/102/73
f 77/88/74 82/90/74 90/100/74 85/101/74
f 75/91/75 78/89/75 86/102/75 83/103/75
f 80/93/76 79/92/76 87/97/76 88/98/76
f 76/94/77 75/91/77 83/103/77 84/96/77
f 88/98/78 87/97/78 95/104/78 96/105/78
f 84/96/79 83/103/79 91/106/79 92/107/79
f 87/97/80 84/96/80 92/107/80 95/104/80
f 89/99/81 88/98/81 96/105/81 97/108/81
f 90/100/82 89/99/82 97/108/82 98/109/82
f 86/102/83 85/101/83 93/110/83 94/111/83
f 85/101/84 90/100/84 98/109/84 93/110/84
f 83/103/85 86/102/85 94/111/85 91/106/85
f 93/110/86 98/109/86 106/112/86 101/113/86
f 91/106/87 94/111/87 102/114/87 99/115/87
f 96/105/88 95/104/88 103/116/88 104/117/88
f 92/107/89 91/106/89 99/115/89 100/118/89
f 95/104/90 92/107/90 100/118/90 103/116/90
f 97/108/91 96/105/91 104/117/91 105/119/91
f 98/109/92 97/108/92 105/119/92 106/112/92
f 94/111/93 93/110/93 101/113/93 102/114/93
f 103/116/94 107/120/94 105/119/94 104/117/94
f 105/119/95 107/120/95 101/113/95 106/112/95
f 101/113/96 107/120/96 99/115/96 102/114/96
f 99/115/97 107/120/97 103/116/97 100/118/97
l 104 108
